HIERARCHY
ROOT hip
{
  OFFSET 0 0 0
  CHANNELS 6 Xposition Yposition Zposition Zrotation Yrotation Xrotation
  JOINT abdomen
  {
    OFFSET 0 20.6881 -0.73152
    CHANNELS 3 Zrotation Xrotation Yrotation
    JOINT chest
    {
      OFFSET 0 11.7043 -0.48768
      CHANNELS 3 Zrotation Xrotation Yrotation
      JOINT neck
      {
        OFFSET 0 22.1894 -2.19456
        CHANNELS 3 Zrotation Xrotation Yrotation
        JOINT head
        {
          OFFSET -0.24384 7.07133 1.2192
          CHANNELS 3 Zrotation Xrotation Yrotation
          JOINT leftEye
          {
            OFFSET 4.14528 8.04674 8.04672
            CHANNELS 3 Zrotation Xrotation Yrotation
            End Site
            {
              OFFSET 1 0 0
            }
          }
          JOINT rightEye
          {
            OFFSET -3.6576 8.04674 8.04672
            CHANNELS 3 Zrotation Xrotation Yrotation
            End Site
            {
              OFFSET 1 0 0
            }
          }
        }
      }
      JOINT rCollar
      {
        OFFSET -2.68224 19.2634 -4.8768
        CHANNELS 3 Zrotation Xrotation Yrotation
        JOINT rShldr
        {
          OFFSET -8.77824 -1.95073 1.46304
          CHANNELS 3 Zrotation Xrotation Yrotation
          JOINT rForeArm
          {
            OFFSET -28.1742 -1.7115 0.48768
            CHANNELS 3 Zrotation Xrotation Yrotation
            JOINT rHand
            {
              OFFSET -22.5879 0.773209 7.07136
              CHANNELS 3 Zrotation Xrotation Yrotation
              JOINT rThumb1
              {
                OFFSET -1.2192 -0.487915 3.41376
                CHANNELS 3 Zrotation Xrotation Yrotation
                JOINT rThumb2
                {
                  OFFSET -3.37035 -0.52449 3.41376
                  CHANNELS 3 Zrotation Xrotation Yrotation
                  End Site
                  {
                    OFFSET -1.78271 -1.18214 1.43049
                  }
                }
              }
              JOINT rIndex1
              {
                OFFSET -7.75947 0.938293 5.60832
                CHANNELS 3 Zrotation Xrotation Yrotation
                JOINT rIndex2
                {
                  OFFSET -2.54057 -0.884171 1.56538
                  CHANNELS 3 Zrotation Xrotation Yrotation
                  End Site
                  {
                    OFFSET -1.62519 -0.234802 1.16502
                  }
                }
              }
              JOINT rMid1
              {
                OFFSET -8.24714 1.18213 3.41376
                CHANNELS 3 Zrotation Xrotation Yrotation
                JOINT rMid2
                {
                  OFFSET -3.10165 -0.590103 1.0647
                  CHANNELS 3 Zrotation Xrotation Yrotation
                  End Site
                  {
                    OFFSET -2.48547 -0.328903 0.83742
                  }
                }
              }
              JOINT rRing1
              {
                OFFSET -8.82822 0.546677 1.51678
                CHANNELS 3 Zrotation Xrotation Yrotation
                JOINT rRing2
                {
                  OFFSET -2.60934 -0.819778 -0.0198488
                  CHANNELS 3 Zrotation Xrotation Yrotation
                  End Site
                  {
                    OFFSET -2.33842 -0.294052 0.168128
                  }
                }
              }
              JOINT rPinky1
              {
                OFFSET -8.27202 -0.0477905 -0.4584
                CHANNELS 3 Zrotation Xrotation Yrotation
                JOINT rPinky2
                {
                  OFFSET -1.82734 -0.647385 -0.700984
                  CHANNELS 3 Zrotation Xrotation Yrotation
                  End Site
                  {
                    OFFSET -1.69225 -0.51767 -0.607171
                  }
                }
              }
            }
          }
        }
      }
      JOINT lCollar
      {
        OFFSET 2.68224 19.2634 -4.8768
        CHANNELS 3 Zrotation Xrotation Yrotation
        JOINT lShldr
        {
          OFFSET 8.77824 -1.95073 1.46304
          CHANNELS 3 Zrotation Xrotation Yrotation
          JOINT lForeArm
          {
            OFFSET 28.1742 -1.7115 0.48768
            CHANNELS 3 Zrotation Xrotation Yrotation
            JOINT lHand
            {
              OFFSET 22.5879 0.773209 7.07136
              CHANNELS 3 Zrotation Xrotation Yrotation
              JOINT lThumb1
              {
                OFFSET 1.2192 -0.487915 3.41376
                CHANNELS 3 Zrotation Xrotation Yrotation
                JOINT lThumb2
                {
                  OFFSET 3.37035 -0.52449 3.41376
                  CHANNELS 3 Zrotation Xrotation Yrotation
                  End Site
                  {
                    OFFSET 1.78271 -1.18214 1.43049
                  }
                }
              }
              JOINT lIndex1
              {
                OFFSET 7.75947 0.938293 5.60832
                CHANNELS 3 Zrotation Xrotation Yrotation
                JOINT lIndex2
                {
                  OFFSET 2.54057 -0.884171 1.56538
                  CHANNELS 3 Zrotation Xrotation Yrotation
                  End Site
                  {
                    OFFSET 1.62519 -0.234802 1.16502
                  }
                }
              }
              JOINT lMid1
              {
                OFFSET 8.24714 1.18213 3.41376
                CHANNELS 3 Zrotation Xrotation Yrotation
                JOINT lMid2
                {
                  OFFSET 3.10165 -0.590103 1.0647
                  CHANNELS 3 Zrotation Xrotation Yrotation
                  End Site
                  {
                    OFFSET 2.48547 -0.328903 0.83742
                  }
                }
              }
              JOINT lRing1
              {
                OFFSET 8.82822 0.546677 1.51678
                CHANNELS 3 Zrotation Xrotation Yrotation
                JOINT lRing2
                {
                  OFFSET 2.60934 -0.819778 -0.0198488
                  CHANNELS 3 Zrotation Xrotation Yrotation
                  End Site
                  {
                    OFFSET 2.33842 -0.294052 0.168128
                  }
                }
              }
              JOINT lPinky1
              {
                OFFSET 8.27202 -0.0477905 -0.4584
                CHANNELS 3 Zrotation Xrotation Yrotation
                JOINT lPinky2
                {
                  OFFSET 1.82734 -0.647385 -0.700984
                  CHANNELS 3 Zrotation Xrotation Yrotation
                  End Site
                  {
                    OFFSET 1.69225 -0.51767 -0.607171
                  }
                }
              }
            }
          }
        }
      }
    }
  }
  JOINT rButtock
  {
    OFFSET -8.77824 4.35084 1.2192
    CHANNELS 3 Zrotation Xrotation Yrotation
    JOINT rThigh
    {
      OFFSET 0 -1.70687 -2.19456
      CHANNELS 3 Zrotation Xrotation Yrotation
      JOINT rShin
      {
        OFFSET 0 -36.8199 0.73152
        CHANNELS 3 Zrotation Xrotation Yrotation
        JOINT rFoot
        {
          OFFSET 0.73152 -45.1104 -5.12064
          CHANNELS 3 Zrotation Xrotation Yrotation
          End Site
          {
            OFFSET -1.1221 -3.69964 12.103
          }
        }
      }
    }
  }
  JOINT lButtock
  {
    OFFSET 8.77824 4.35084 1.2192
    CHANNELS 3 Zrotation Xrotation Yrotation
    JOINT lThigh
    {
      OFFSET 0 -1.70687 -2.19456
      CHANNELS 3 Zrotation Xrotation Yrotation
      JOINT lShin
      {
        OFFSET 0 -36.8199 0.73152
        CHANNELS 3 Zrotation Xrotation Yrotation
        JOINT lFoot
        {
          OFFSET -0.73152 -45.1104 -5.12064
          CHANNELS 3 Zrotation Xrotation Yrotation
          End Site
          {
            OFFSET 1.1221 -3.69964 12.103
          }
        }
      }
    }
  }
}
MOTION
Frames:	7
Frame Time:	0.00833333
0.0 0.0 0.0 0.0 0.0 0.0 0.0 0.0 0.0 0.0 0.0 0.0 0.0 0.0 0.0 0.0 0.0 0.0 0.0 0.0 0.0 0.0 0.0 0.0 0.0 0.0 0.0 0.0 0.0 0.0 0.0 0.0 0.0 0.0 0.0 0.0 0.0 0.0 0.0 0.0 0.0 0.0 0.0 0.0 0.0 0.0 0.0 0.0 0.0 0.0 0.0 0.0 0.0 0.0 0.0 0.0 0.0 0.0 0.0 0.0 0.0 0.0 0.0 0.0 0.0 0.0 0.0 0.0 0.0 0.0 0.0 0.0 0.0 0.0 0.0 0.0 0.0 0.0 0.0 0.0 0.0 0.0 0.0 0.0 0.0 0.0 0.0 0.0 0.0 0.0 0.0 0.0 0.0 0.0 0.0 0.0 0.0 0.0 0.0 0.0 0.0 0.0 0.0 0.0 0.0 0.0 0.0 0.0 0.0 0.0 0.0 0.0 0.0 0.0 0.0 0.0 0.0 0.0 0.0 0.0 0.0 0.0 0.0 0.0 0.0 0.0 0.0 0.0 0.0 0.0 0.0 0.0
0.1609 62.5514 0.0936 -0.142687 7.144788 -1.073517 -0.082194 -1.539747 180.0 3.705764 -12.781401 -158.685494 -9.94565 -12.667769 -66.436661 37.584284 -18.411395 52.058149 -1.802317 -0.425835 26.585089 28.827207 -16.199766 -57.950987 70.222113 19.634268 7.902669 15.155425 -25.569146 6.611661 -77.846852 -84.720298 76.880785 11.388671 -16.580195 -59.086833 173.620226 0.121577 52.791574 130.528152 -22.894621 -108.484351 164.74425 37.763838 -127.800058 -55.893001 56.44908 -92.029388 156.583069 25.924407 -101.812232 -122.358238 55.996059 122.594063 -87.92284 21.669117 -101.177189 -156.149096 3.329021 174.649527 -7.044415 9.801613 -75.308998 -155.696277 38.418681 -147.154109 -57.50114 43.931192 -20.420565 -93.735865 -82.08084 -79.15401 129.555813 -80.994362 -30.227581 -92.493053 -64.399897 -52.586129 0.900059 -17.383605 -1.329115 129.678218 -4.542637 -91.498031 17.616954 -18.578117 -13.027597 84.326922 53.295994 -70.635831 -121.355135 -45.368864 -101.666767 -178.233173 -19.354292 -142.097262 70.602739 55.283408 107.564058 150.932652 -12.353467 177.430311 63.429621 55.294665 93.957284 156.378897 36.246854 145.699398 -29.026261 48.322811 -141.570298 1.250661 54.526229 -1.004149 3.441412 -6.763244 32.390978 -68.739412 60.538555 79.92678 -5.145836 53.558883 -173.612764 0.437067 53.672662 1.152519 -7.071709 -0.920837 -99.143047 -75.852519 16.698982 86.051322
0.1576 61.845000000000006 -0.2081 -155.55812 54.248883 -163.609659 11.109599 9.400191 129.75228 -2.802126 0.17683 -114.861501 -11.834179 26.236041 -96.620243 37.141675 19.849105 89.014517 -0.998781 0.022576 -2.589706 -2.250028 0.051339 -2.613834 3.947813 -52.401022 -11.794662 67.465482 32.753245 -47.157622 -4.029553 19.616524 50.204222 -7.53479 29.769697 2.293908 -1.465716 3.219122 1.732107 -129.164261 -21.671911 114.741298 -84.427847 39.013693 69.365038 96.419542 -64.931357 43.381937 146.517221 -77.120655 111.145472 -47.723387 55.522481 39.746847 -96.639529 -73.58992 -114.624999 14.761873 29.649293 -2.223607 -161.311346 72.426302 -150.108557 -142.213042 -12.422435 -131.170956 -4.365939 -43.466411 7.93572 -82.939722 30.420166 35.915863 92.458135 36.708628 -69.409589 -35.983518 -56.429507 -24.69779 -6.121618 -6.597876 -1.132579 136.471638 -38.148905 -120.253665 -4.940828 -11.114249 1.60513 -88.433354 -58.830185 -35.544726 161.937961 -17.882767 -145.86044 -2.376473 22.109298 -1.006986 75.278432 -71.574211 90.401281 133.836909 82.292466 -150.403307 144.334897 10.444894 138.659102 147.515 8.571469 141.39243 157.232946 74.43336 18.499341 151.028062 79.262261 -19.390192 -48.385367 34.351795 -98.182506 -90.229537 65.589323 -153.987492 0.501792 -0.402942 0.744798 60.286374 -51.146876 54.50414 46.01636 71.5796 53.564586 -154.546018 55.850358 74.94236
0.0315 59.7236 -0.166 -154.858049 56.009474 -164.598979 10.826464 12.514681 138.570078 -3.54371 0.774997 -121.625684 5.009888 30.752635 154.907072 -20.258824 37.516034 -147.005684 0.6334 -0.013931 -2.519805 -0.41108 -0.002374 0.661699 -130.890316 54.578093 134.235773 84.605961 -30.969474 94.902519 177.056896 26.952034 98.342481 158.772465 -32.397378 140.633205 -4.676274 5.55525 1.327387 34.708427 -49.329831 -12.128043 -153.844025 -19.552011 121.63497 -157.280552 -10.455919 123.268021 -10.336506 25.967875 7.262894 2.28707 1.09361 1.600562 -71.945249 -72.525788 -89.644314 13.960929 -3.334804 -3.017311 -155.796689 71.628402 -155.65985 41.496608 80.173267 -1.294916 13.58632 43.169057 -15.713366 -60.333277 5.32387 -52.103611 3.9034 -22.290927 -30.440929 5.529739 27.761899 -1.809765 175.274747 -11.528298 -87.481525 137.398167 11.8274 -67.110691 153.059977 -20.744097 -119.26285 62.582585 56.130156 -46.956265 -2.289039 -1.256969 0.919226 0.692777 -0.562059 -4.97313 145.337207 0.246882 179.059146 152.008231 -32.683061 175.964056 -32.356508 79.927329 -3.423537 10.919171 -24.253053 7.254891 0.990971 1.003895 -1.291514 -11.570315 5.819752 0.957464 -3.406804 48.148912 -49.089566 -8.958605 -31.946322 24.820921 0.699886 0.227697 -0.902715 64.245491 -48.401926 158.871428 74.58783 -20.844316 -37.286444 -83.376013 39.810391 0.803916
-0.0633 59.8764 -0.1767 -154.262443 57.002824 -164.421032 13.378008 17.046156 -3.446534 0.337002 -6.686882 21.646456 8.430926 16.648943 65.369031 -26.766144 -6.47781 -65.283788 0.178113 -0.005653 -3.635735 0.264099 -0.003848 -1.669467 -121.181057 61.004826 124.584139 -17.642052 2.623005 63.961752 104.549454 22.507513 -163.302934 -177.393141 36.078842 149.927985 83.667921 -50.588438 32.864154 -11.350245 -43.948591 -28.03059 -172.088326 -51.763239 121.938898 -169.965107 -41.407787 115.45001 -141.743618 36.045168 129.937255 170.920616 -64.479874 136.622162 0.078903 13.707431 2.569677 3.046657 30.895605 5.393189 5.714603 18.705937 7.098263 3.526448 -1.981026 -6.608042 158.995269 -49.413381 -170.695475 72.854023 -33.049515 57.312192 162.179149 -26.458251 144.330323 2.39197 19.656316 -1.886142 4.621492 1.788443 -1.031747 17.405757 17.948247 -18.389596 0.759274 1.96264 -0.730147 179.223622 -33.857367 -106.985896 -25.241972 -61.088762 -2.114399 155.556421 15.257105 -138.890282 73.08811 71.770459 -87.745454 153.000437 34.992848 -164.79842 23.860008 -38.618168 24.171503 20.359738 -41.667551 20.374323 -151.769884 74.359906 -21.385461 111.55078 72.40744 -36.393779 -47.74219 -7.579264 49.948193 98.341525 -3.964625 10.098623 -3.560686 0.057297 -2.668864 68.139801 -44.391612 74.32288 60.879707 60.749209 4.445101 -82.766245 48.580177 -1.228453
-0.0022 59.8105 -0.09940000000000002 -153.6442 57.708744 -164.164342 13.634246 13.098198 -180.0 0.042047 2.067683 -161.20116 8.742454 16.946248 65.527101 -26.865679 -6.520531 -64.465738 -0.463327 0.013357 -3.302551 -0.682897 0.01425 -2.390776 -159.000286 -48.264125 171.063178 -39.839818 -5.022746 -24.474775 99.108769 25.763489 -88.983821 -160.274838 61.833878 139.9416 -68.680375 38.840724 36.645068 1.848033 -12.844287 23.344945 36.888427 -58.046931 -1.972118 56.115747 -49.362264 8.701062 24.039839 -61.316313 0.786306 10.88411 -24.991472 -0.507787 -143.436082 -12.154547 -172.842802 14.378795 15.346795 -9.170557 -41.791098 -45.891647 -41.501794 1.653263 0.464999 -2.068946 -3.959933 -44.744263 8.901609 -87.957208 40.385793 35.482308 -160.90513 -4.013336 -113.876328 -170.411312 -6.811727 -146.99599 94.844175 38.072567 -53.646426 -79.88006 -49.237027 -35.592434 49.203346 42.137605 -39.244731 90.647976 51.621045 -65.872539 -6.751579 -18.211077 2.526163 172.990793 -31.288468 -143.31317 71.92072 72.412197 -87.383742 157.564919 -1.370597 -172.687801 150.985818 35.930104 146.852154 45.760326 -48.103251 46.308588 165.919988 75.019768 11.502473 135.960621 76.68589 180.0 32.987855 -37.469899 -77.38726 -175.333839 -15.281889 87.659475 -177.582778 75.526829 -1.646501 -142.800884 6.214531 74.972966 80.006165 14.475992 165.588406 -158.909331 85.9374 -125.804998
0.213 59.965999999999994 -0.0747 -153.702861 57.777883 -164.245551 15.937347 15.75144 -85.747332 4.596822 -2.662828 104.217321 -8.386715 29.191707 -117.24024 30.833251 28.951236 115.766917 -0.583743 0.002614 -0.513176 -0.276295 0.001558 -0.646339 -155.596876 -4.103303 162.394446 -46.649157 -5.559299 10.993603 0.223724 -1.462353 -81.977013 155.932158 -39.251624 139.472613 7.465438 -6.182441 -0.991915 -37.621526 28.877494 30.304422 -164.921037 -44.19161 123.246031 -77.1661 55.555435 63.142928 0.089562 2.938509 0.733899 -146.087124 36.924959 133.560159 -144.803461 16.831822 179.292225 -153.076054 -24.040439 -171.66089 -85.979711 -49.580853 -84.205561 -164.85608 55.785623 -144.969704 83.007754 68.635371 -85.947511 108.123633 14.641622 -90.162741 71.397177 -51.30046 117.310456 -73.393553 -67.011709 -61.323503 159.750679 2.188456 -89.258266 113.204452 7.617271 -52.820221 11.553689 20.545703 -7.549066 -1.95579 3.250775 0.166683 -2.005779 -1.287768 1.114678 164.469498 -4.010892 -141.570114 146.638616 -5.506639 176.840251 83.584274 86.02609 -94.511236 155.012172 40.472526 145.534994 0.952815 -2.0665 4.097564 0.411336 0.752667 -0.534238 -10.699378 4.869953 -114.195226 -44.360718 -19.814556 75.033349 146.02265 -12.023838 9.120887 -179.804478 75.14644 -0.159879 -139.542028 4.917388 -105.819632 -74.179418 -12.419359 46.827848 96.555358 26.711876 -25.237227
